#!OML:ASF I:\Actors\actors\Patient Classification 2\Patient 1\Session 1\actor1.ASF
:FULLY-SPECIFIED
:DEGREES
772
root -0.621172 18.7208 5.51161 0.417753 6.16178 -2.99171
lowerback 11.6191 1.4912 8.37626
upperback 1.12507 3.32646 4.69221
thorax -5.15192 1.50604 -0.285846
lowerneck -4.95267 -11.5475 -8.70985
upperneck 20.367 -17.1777 10.9176
head 8.8872 -7.84967 3.3213
rclavicle -1.98785e-014 1.90833e-014
rhumerus 8.71292 0.0196668 -60.1625
rradius 74.4829
rwrist -20.1709
rhand -9.32962 -30.6331
rfingers 7.12502
rthumb 16.6291 -59.9407
lclavicle -1.98785e-014 1.90833e-014
lhumerus -39.9312 -19.5268 103.458
lradius 72.9568
lwrist 18.2043
lhand -5.63827 -27.8512
lfingers 7.12502
lthumb 20.1801 1.1206
rfemur 0 0 0
rtibia 0
rfoot 0 0
rtoes 0
lfemur -8.57112 -3.82121 -10.9341
ltibia 24.852
lfoot -18.5425 6.65913
ltoes -57.0762
773
root -0.619656 18.7207 5.51037 0.381914 6.2346 -3.0069
lowerback 11.6592 1.45844 8.48537
upperback 1.15076 3.30356 4.75576
thorax -5.14656 1.49383 -0.27651
lowerneck -4.94898 -11.5716 -8.70339
upperneck 20.2636 -17.1847 10.8532
head 8.84502 -7.86129 3.29896
rclavicle -3.65764e-014 2.06736e-014
rhumerus 7.82675 0.1523 -60.4153
rradius 73.9032
rwrist -19.8147
rhand -9.03691 -30.4189
rfingers 7.12502
rthumb 16.9109 -59.7027
lclavicle -3.65764e-014 2.06736e-014
lhumerus -39.9217 -19.4923 103.49
lradius 72.9513
lwrist 18.252
lhand -5.71099 -27.9493
lfingers 7.12502
lthumb 20.1102 1.0299
rfemur 0 0 0
rtibia 0
rfoot 0 0
rtoes 0
lfemur -8.5587 -3.80162 -10.9171
ltibia 24.8482
lfoot -18.5249 6.59371
ltoes -57.1133
774
root -0.619181 18.7212 5.50927 0.392519 6.31492 -2.97946
lowerback 11.6687 1.43031 8.53005
upperback 1.1483 3.2766 4.80495
thorax -5.15691 1.47983 -0.24554
lowerneck -4.89817 -11.5816 -8.7108
upperneck 20.1395 -17.1718 10.7952
head 8.78684 -7.86682 3.28664
rclavicle -2.92213e-014 -5.24792e-014
rhumerus 6.99878 0.320524 -60.669
rradius 73.3547
rwrist -19.6611
rhand -9.06886 -30.435
rfingers 7.12502
rthumb 16.8802 -59.7214
lclavicle -2.92213e-014 -5.24792e-014
lhumerus -39.9791 -19.4303 103.513
lradius 72.9639
lwrist 18.2959
lhand -5.6915 -28.16
lfingers 7.12502
lthumb 20.1289 0.817198
rfemur 0 0 0
rtibia 0
rfoot 0 0
rtoes 0
lfemur -8.59977 -3.7857 -10.9422
ltibia 24.8546
lfoot -18.455 6.49997
ltoes -57.1084
775
root -0.620515 18.7226 5.50816 0.455127 6.35938 -2.9709
lowerback 11.6575 1.42513 8.57447
upperback 1.15693 3.27615 4.8531
thorax -5.14214 1.47991 -0.21867
lowerneck -4.97972 -11.6145 -8.76863
upperneck 20.0325 -17.1987 10.8173
head 8.77568 -7.88152 3.29416
rclavicle -2.56432e-014 -3.97569e-014
rhumerus 6.28008 0.456794 -60.9113
rradius 72.8223
rwrist -19.7901
rhand -9.4678 -30.5316
rfingers 7.12502
rthumb 16.4961 -59.8503
lclavicle -2.56432e-014 -3.97569e-014
lhumerus -39.9462 -19.4538 103.488
lradius 72.9773
lwrist 18.345
lhand -5.62343 -28.2178
lfingers 7.12502
lthumb 20.1943 0.752544
rfemur 0 0 0
rtibia 0
rfoot 0 0
rtoes 0
lfemur -8.69062 -3.76286 -10.9374
ltibia 24.8643
lfoot -18.4227 6.41955
ltoes -57.0805
776
root -0.621513 18.7238 5.50723 0.506717 6.39845 -2.96304
lowerback 11.6478 1.41668 8.61718
upperback 1.20558 3.26856 4.91945
thorax -5.08721 1.47895 -0.170183
lowerneck -5.22232 -11.6442 -8.94566
upperneck 20.0477 -17.2335 10.9305
head 8.8566 -7.88951 3.33693
rclavicle 4.03533e-014 1.90833e-014
rhumerus 5.67424 0.569964 -61.0541
rradius 72.2813
rwrist -19.8887
rhand -9.69753 -30.6509
rfingers 7.12502
rthumb 16.2749 -59.9878
lclavicle 4.03533e-014 1.90833e-014
lhumerus -39.7325 -19.4862 103.453
lradius 72.9208
lwrist 18.4155
lhand -5.5644 -28.1945
lfingers 7.12502
lthumb 20.2511 0.769851
rfemur 0 0 0
rtibia 0
rfoot 0 0
rtoes 0
lfemur -8.76836 -3.73594 -10.9352
ltibia 24.8781
lfoot -18.4384 6.35628
ltoes -57.0566
777
root -0.621724 18.7241 5.5065 0.510385 6.42248 -2.9742
lowerback 11.6751 1.4153 8.69395
upperback 1.24419 3.28056 4.99065
thorax -5.06089 1.48566 -0.139541
lowerneck -5.3119 -11.6712 -9.09365
upperneck 19.9631 -17.2543 11.004
head 8.86738 -7.90205 3.37464
rclavicle 6.36111e-015 2.06736e-014
rhumerus 5.04361 0.653928 -61.0984
rradius 71.7744
rwrist -19.7115
rhand -9.52356 -30.9238
rfingers 7.12502
rthumb 16.4424 -60.247
lclavicle 6.36111e-015 2.06736e-014
lhumerus -39.5594 -19.4507 103.472
lradius 72.8505
lwrist 18.4348
lhand -5.55283 -28.2098
lfingers 7.12502
lthumb 20.2622 0.75336
rfemur 0 0 0
rtibia 0
rfoot 0 0
rtoes 0
lfemur -8.79721 -3.67243 -10.9198
ltibia 24.8959
lfoot -18.4283 6.30244
ltoes -57.0622
778
root -0.621863 18.7243 5.50612 0.519126 6.44243 -3.00446
lowerback 11.6997 1.42559 8.80407
upperback 1.25502 3.31347 5.04371
thorax -5.0584 1.50031 -0.149644
lowerneck -5.27253 -11.7183 -9.15686
upperneck 19.7757 -17.297 11.0276
head 8.80917 -7.9319 3.38925
rclavicle -3.89618e-014 -1.59028e-014
rhumerus 4.31874 0.682276 -61.179
rradius 71.3226
rwrist -19.4845
rhand -9.33359 -31.1902
rfingers 7.12502
rthumb 16.6253 -60.4981
lclavicle -3.89618e-014 -1.59028e-014
lhumerus -39.4631 -19.4176 103.515
lradius 72.8037
lwrist 18.422
lhand -5.57728 -28.1576
lfingers 7.12502
lthumb 20.2387 0.80804
rfemur 0 0 0
rtibia 0
rfoot 0 0
rtoes 0
lfemur -8.82995 -3.63837 -10.8817
ltibia 24.9128
lfoot -18.3714 6.26808
ltoes -57.0329
779
root -0.622429 18.7245 5.50596 0.516713 6.49507 -3.0299
lowerback 11.7378 1.41729 8.91007
upperback 1.24633 3.32366 5.07241
thorax -5.08435 1.50222 -0.180417
lowerneck -5.20255 -11.7546 -9.18385
upperneck 19.634 -17.3441 11.0854
head 8.76155 -7.95818 3.41101
rclavicle -3.08116e-014 6.36111e-015
rhumerus 3.57621 0.67006 -61.3616
rradius 70.8572
rwrist -19.4133
rhand -9.3711 -31.1211
rfingers 7.12502
rthumb 16.5892 -60.4321
lclavicle -3.08116e-014 6.36111e-015
lhumerus -39.4495 -19.4071 103.521
lradius 72.8002
lwrist 18.4419
lhand -5.53661 -28.0476
lfingers 7.12502
lthumb 20.2778 0.91389
rfemur 0 0 0
rtibia 0
rfoot 0 0
rtoes 0
lfemur -8.85053 -3.67905 -10.8477
ltibia 24.9294
lfoot -18.3459 6.24649
ltoes -56.9562
780
root -0.623427 18.7242 5.50581 0.46921 6.57826 -3.05264
lowerback 11.8131 1.38741 9.00225
upperback 1.24023 3.30831 5.09852
thorax -5.13062 1.49116 -0.203646
lowerneck -5.18207 -11.7678 -9.15127
upperneck 19.5733 -17.3621 11.0944
head 8.737 -7.96619 3.40846
rclavicle 1.09332e-014 3.65764e-014
rhumerus 2.9125 0.569882 -61.544
rradius 70.3733
rwrist -19.0543
rhand -8.97789 -31.4004
rfingers 7.12502
rthumb 16.9677 -60.6793
lclavicle 1.09332e-014 3.65764e-014
lhumerus -39.4787 -19.3632 103.496
lradius 72.8132
lwrist 18.4627
lhand -5.43765 -27.9697
lfingers 7.12502
lthumb 20.3729 0.981607
rfemur 0 0 0
rtibia 0
rfoot 0 0
rtoes 0
lfemur -8.82798 -3.71259 -10.8176
ltibia 24.942
lfoot -18.3753 6.17763
ltoes -56.9327
781
root -0.624295 18.7242 5.50623 0.423952 6.6785 -3.0618
lowerback 11.8556 1.3623 9.06882
upperback 1.25765 3.29089 5.1481
thorax -5.13649 1.48195 -0.186361
lowerneck -5.20666 -11.8065 -9.14998
upperneck 19.517 -17.3945 11.0341
head 8.72008 -7.98684 3.38272
rclavicle 3.35946e-014 -1.59028e-014
rhumerus 2.30562 0.308954 -61.6838
rradius 69.9221
rwrist -17.9877
rhand -7.68948 -32.3389
rfingers 7.12502
rthumb 18.2076 -61.5067
lclavicle 3.35946e-014 -1.59028e-014
lhumerus -39.4246 -19.3026 103.49
lradius 72.7733
lwrist 18.4542
lhand -5.41112 -27.9855
lfingers 7.12502
lthumb 20.3984 0.963084
rfemur 0 0 0
rtibia 0
rfoot 0 0
rtoes 0
lfemur -8.81228 -3.68906 -10.8024
ltibia 24.9451
lfoot -18.3467 6.07546
ltoes -56.9752
782
root -0.624739 18.7241 5.50725 0.411877 6.75614 -3.03298
lowerback 11.8478 1.36283 9.10831
upperback 1.27845 3.29588 5.18407
thorax -5.10972 1.48546 -0.170329
lowerneck -5.19478 -11.8748 -9.13724
upperneck 19.4128 -17.4557 10.9273
head 8.67784 -8.0271 3.33883
rclavicle -8.74653e-015 -5.40694e-014
rhumerus 1.67972 -0.0148393 -61.8495
rradius 69.4917
rwrist -16.8801
rhand -6.49084 -33.0681
rfingers 7.12502
rthumb 19.3605 -62.1243
lclavicle -8.74653e-015 -5.40694e-014
lhumerus -39.3664 -19.3153 103.494
lradius 72.7693
lwrist 18.4681
lhand -5.46939 -28.0793
lfingers 7.12502
lthumb 20.3424 0.875317
rfemur 0 0 0
rtibia 0
rfoot 0 0
rtoes 0
lfemur -8.81248 -3.6647 -10.8331
ltibia 24.9378
lfoot -18.2541 6.0358
ltoes -57.0197
783
root -0.625602 18.7237 5.50922 0.414217 6.81779 -2.99257
lowerback 11.8058 1.38041 9.15143
upperback 1.30449 3.3168 5.19002
thorax -5.05505 1.49753 -0.18919
lowerneck -5.22449 -11.9394 -9.03145
upperneck 19.3151 -17.5072 10.7573
head 8.62933 -8.05992 3.25973
rclavicle 3.43897e-014 6.20208e-014
rhumerus 1.07277 -0.296632 -62.0178
rradius 69.0539
rwrist -16.4295
rhand -6.04347 -33.3977
rfingers 7.12502
rthumb 19.7906 -62.4101
lclavicle 3.43897e-014 6.20208e-014
lhumerus -39.3295 -19.4094 103.469
lradius 72.8328
lwrist 18.5054
lhand -5.51801 -28.1364
lfingers 7.12502
lthumb 20.2956 0.8232
rfemur 0 0 0
rtibia 0
rfoot 0 0
rtoes 0
lfemur -8.81382 -3.69281 -10.8751
ltibia 24.9251
lfoot -18.1965 6.03193
ltoes -57.0473
784
root -0.628071 18.7231 5.51169 0.403955 6.88599 -2.96617
lowerback 11.7805 1.39095 9.1706
upperback 1.33169 3.32852 5.21293
thorax -5.01152 1.50541 -0.176147
lowerneck -5.24309 -11.9895 -9.02754
upperneck 19.2052 -17.5545 10.7182
head 8.59651 -8.08763 3.23964
rclavicle 2.98177e-015 -3.02153e-014
rhumerus 0.521997 -0.54586 -62.1857
rradius 68.5907
rwrist -16.331
rhand -5.89663 -33.6195
rfingers 7.12502
rthumb 19.9317 -62.6173
lclavicle 2.98177e-015 -3.02153e-014
lhumerus -39.2797 -19.4733 103.435
lradius 72.8825
lwrist 18.5437
lhand -5.51984 -28.0819
lfingers 7.12502
lthumb 20.2939 0.877821
rfemur 0 0 0
rtibia 0
rfoot 0 0
rtoes 0
lfemur -8.80771 -3.71298 -10.891
ltibia 24.909
lfoot -18.1938 5.96314
ltoes -57.0518
785
root -0.631526 18.7231 5.51406 0.382418 6.96054 -2.94933
lowerback 11.7882 1.38822 9.16277
upperback 1.34426 3.32647 5.25589
thorax -5.00576 1.50561 -0.126333
lowerneck -5.17847 -12.0308 -9.16623
upperneck 19.0605 -17.6137 10.8616
head 8.5696 -8.11985 3.30354
rclavicle 1.8487e-014 -1.43125e-014
rhumerus -0.00463847 -0.799173 -62.3687
rradius 68.0771
rwrist -16.0853
rhand -5.84046 -33.7629
rfingers 7.12502
rthumb 19.9857 -62.7551
lclavicle 1.8487e-014 -1.43125e-014
lhumerus -39.2491 -19.4901 103.417
lradius 72.9106
lwrist 18.5739
lhand -5.54445 -28.0196
lfingers 7.12502
lthumb 20.2702 0.942651
rfemur 0 0 0
rtibia 0
rfoot 0 0
rtoes 0
lfemur -8.78912 -3.70892 -10.8923
ltibia 24.8913
lfoot -18.2104 5.88631
ltoes -57.1063
786
root -0.634416 18.7238 5.51735 0.372069 7.02838 -2.92969
lowerback 11.7756 1.38895 9.15457
upperback 1.34433 3.3266 5.28438
thorax -5.00098 1.50642 -0.0913782
lowerneck -5.09098 -12.0674 -9.21483
upperneck 18.9058 -17.6607 10.9301
head 8.51812 -8.14793 3.33343
rclavicle -3.75703e-014 5.08889e-014
rhumerus -0.525054 -1.07526 -62.5522
rradius 67.5155
rwrist -15.6197
rhand -6.05649 -33.5368
rfingers 7.12502
rthumb 19.7781 -62.5506
lclavicle -3.75703e-014 5.08889e-014
lhumerus -39.2601 -19.5044 103.398
lradius 72.9434
lwrist 18.5538
lhand -5.64016 -28.0694
lfingers 7.12502
lthumb 20.1782 0.902603
rfemur 0 0 0
rtibia 0
rfoot 0 0
rtoes 0
lfemur -8.77728 -3.70363 -10.9014
ltibia 24.8808
lfoot -18.2138 5.85707
ltoes -57.1482
